Coordinates
version=1
nRows=5
nColumns=40
inDegrees=yes

Units are S.I. units (second, meters, Newtons, ...)
If the header above contains a line with 'inDegrees', this indicates whether rotational values are in degrees (yes) or radians (no).

endheader
time	pelvis_tilt	pelvis_list	pelvis_rotation	pelvis_tx	pelvis_ty	pelvis_tz	hip_flexion_r	hip_adduction_r	hip_rotation_r	knee_angle_r	knee_angle_r_beta	ankle_angle_r	subtalar_angle_r	mtp_angle_r	hip_flexion_l	hip_adduction_l	hip_rotation_l	knee_angle_l	knee_angle_l_beta	ankle_angle_l	subtalar_angle_l	mtp_angle_l	lumbar_extension	lumbar_bending	lumbar_rotation	arm_flex_r	arm_add_r	arm_rot_r	elbow_flex_r	pro_sup_r	wrist_flex_r	wrist_dev_r	arm_flex_l	arm_add_l	arm_rot_l	elbow_flex_l	pro_sup_l	wrist_flex_l	wrist_dev_l
      0.44500000	      3.26869511	     -5.49381112	     -1.29992419	     -0.10043220	      0.94307099	      0.27798387	     -0.35616802	      7.12029650	    -11.53014791	      9.29930623	      0.16230351	     -0.72894770	     -4.58369972	      0.00000000	     14.55981575	    -20.13023843	    -15.36456249	     65.84951551	      1.14929086	     -2.12609473	     -8.63298838	      0.00000000	     -5.10084993	      8.58786224	     -0.39153598	     34.58961912	    -14.31733774	     34.58961912	     78.41714362	     44.48594095	      0.00000000	      0.00000000	     34.58961912	    -14.31733774	     34.58961912	     78.41714362	     44.48594095	      0.00000000	      0.00000000
      0.45000000	      3.71698774	     -4.57530800	     -1.66072902	     -0.09396126	      0.94462748	      0.27858836	     -1.29010915	      5.97140239	    -11.92980665	      9.39708575	      0.16401009	      0.11241051	     -2.89829892	      0.00000000	     14.31848722	    -18.94450998	    -16.02410649	     64.62041540	      1.12783901	     -1.48687861	     -8.42757523	      0.00000000	     -5.66240831	      7.42665490	      0.12022079	     34.64831365	    -14.32365026	     34.64831365	     78.35539546	     44.51124650	      0.00000000	      0.00000000	     34.64831365	    -14.32365026	     34.64831365	     78.35539546	     44.51124650	      0.00000000	      0.00000000
      0.45500000	      3.69595196	     -4.44931328	     -1.82363105	     -0.08757882	      0.94495698	      0.27865169	     -1.85837836	      5.81087783	    -12.00615250	      9.12526003	      0.15926583	      0.31219795	     -2.40488590	      0.00000000	     14.97465884	    -18.72409990	    -16.24135643	     63.87350543	      1.11480297	     -0.83191286	     -8.15794114	      0.00000000	     -5.64786096	      7.29531441	      0.22769178	     34.65751476	    -14.32463789	     34.65751476	     78.34578182	     44.51511842	      0.00000000	      0.00000000	     34.65751476	    -14.32463789	     34.65751476	     78.34578182	     44.51511842	      0.00000000	      0.00000000
      0.46000000	      4.01187045	     -3.91143772	     -2.13743008	     -0.08111565	      0.94601664	      0.27914558	     -2.68466358	      5.12447596	    -12.25986770	      9.10703992	      0.15894783	      0.82269241	     -1.40487023	      0.00000000	     14.96675283	    -18.03852593	    -16.83851822	     62.70139057	      1.09434571	     -0.41089615	     -7.96789668	      0.00000000	     -6.02751043	      6.60208227	      0.57983366	     34.69979896	    -14.32916919	     34.69979896	     78.30185726	     44.53254577	      0.00000000	      0.00000000	     34.69979896	    -14.32916919	     34.69979896	     78.30185726	     44.53254577	      0.00000000	      0.00000000
      0.46500000	      3.98908820	     -3.80083807	     -2.28375058	     -0.07471739	      0.94621089	      0.27919817	     -3.22797518	      4.96983874	    -12.32689234	      8.88732239	      0.15511304	      1.03463175	     -0.95311084	      0.00000000	     15.58474065	    -17.82940557	    -17.05373071	     61.84691134	      1.07943224	      0.13603591	     -7.70082260	      0.00000000	     -5.99401896	      6.47542944	      0.69609538	     34.70931230	    -14.33018713	     34.70931230	     78.29202702	     44.53639411	      0.00000000	      0.00000000	     34.70931230	    -14.33018713	     34.70931230	     78.29202702	     44.53639411	      0.00000000	      0.00000000
